{
  "accessors": [
    {
      "bufferView": 2,
      "componentType": 5126,
      "count": 65532,
      "max": [
        17.454998016357422,
        15.609420776367188,
        14.718890190124512
      ],
      "min": [
        -22.06047821044922,
        -14.50478744506836,
        3.7117738723754883
      ],
      "type": "VEC3"
    },
    {
      "bufferView": 2,
      "byteOffset": 786384,
      "componentType": 5126,
      "count": 65532,
      "max": [
        0.9999687671661377,
        0.9999850988388062,
        0.9999998807907104
      ],
      "min": [
        -0.9999964237213135,
        -0.9999403953552246,
        -0.9999905824661255
      ],
      "type": "VEC3"
    },
    {
      "bufferView": 1,
      "componentType": 5126,
      "count": 65532,
      "max": [
        0.9998501539230347,
        0.9906004667282104
      ],
      "min": [
        0.0001220703125,
        0.00012661947403103113
      ],
      "type": "VEC2"
    },
    {
      "bufferView": 0,
      "componentType": 5125,
      "count": 279186,
      "type": "SCALAR"
    },
    {
      "bufferView": 2,
      "byteOffset": 1572768,
      "componentType": 5126,
      "count": 65532,
      "max": [
        19.68482208251953,
        10.817493438720703,
        11.582324028015137
      ],
      "min": [
        -19.98790740966797,
        -15.57298469543457,
        3.747134208679199
      ],
      "type": "VEC3"
    },
    {
      "bufferView": 2,
      "byteOffset": 2359152,
      "componentType": 5126,
      "count": 65532,
      "max": [
        0.9999687671661377,
        0.9999616146087646,
        0.9999959468841553
      ],
      "min": [
        -0.9998809099197388,
        -0.999922513961792,
        -0.9999905824661255
      ],
      "type": "VEC3"
    },
    {
      "bufferView": 1,
      "byteOffset": 524256,
      "componentType": 5126,
      "count": 65532,
      "max": [
        0.9998767375946045,
        0.9979246854782104
      ],
      "min": [
        0.0001220703125,
        0.00012572540435940027
      ],
      "type": "VEC2"
    },
    {
      "bufferView": 0,
      "byteOffset": 1116744,
      "componentType": 5125,
      "count": 264345,
      "type": "SCALAR"
    },
    {
      "bufferView": 2,
      "byteOffset": 3145536,
      "componentType": 5126,
      "count": 65532,
      "max": [
        19.58017349243164,
        2.8693032264709473,
        11.605281829833984
      ],
      "min": [
        -19.201616287231445,
        -16.319408416748047,
        3.5994319915771484
      ],
      "type": "VEC3"
    },
    {
      "bufferView": 2,
      "byteOffset": 3931920,
      "componentType": 5126,
      "count": 65532,
      "max": [
        0.9999759197235107,
        0.9996504783630371,
        0.9999610185623169
      ],
      "min": [
        -0.9998215436935425,
        -0.9999886751174927,
        -0.999934196472168
      ],
      "type": "VEC3"
    },
    {
      "bufferView": 1,
      "byteOffset": 1048512,
      "componentType": 5126,
      "count": 65532,
      "max": [
        0.9998289942741394,
        0.9945067167282104
      ],
      "min": [
        0.0001220703125,
        0.0001230431953445077
      ],
      "type": "VEC2"
    },
    {
      "bufferView": 0,
      "byteOffset": 2174124,
      "componentType": 5125,
      "count": 250482,
      "type": "SCALAR"
    },
    {
      "bufferView": 2,
      "byteOffset": 4718304,
      "componentType": 5126,
      "count": 49052,
      "max": [
        10.35097599029541,
        10.217830657958984,
        11.801166534423828
      ],
      "min": [
        -22.062862396240234,
        -15.808460235595703,
        4.521747589111328
      ],
      "type": "VEC3"
    },
    {
      "bufferView": 2,
      "byteOffset": 5306928,
      "componentType": 5126,
      "count": 49052,
      "max": [
        0.9995535612106323,
        0.9999587535858154,
        0.9999693632125854
      ],
      "min": [
        -0.9999196529388428,
        -0.9999444484710693,
        -0.9999905824661255
      ],
      "type": "VEC3"
    },
    {
      "bufferView": 1,
      "byteOffset": 1572768,
      "componentType": 5126,
      "count": 49052,
      "max": [
        0.999860942363739,
        0.9959715604782104
      ],
      "min": [
        0.0001220703125,
        0.00013401044998317957
      ],
      "type": "VEC2"
    },
    {
      "bufferView": 0,
      "byteOffset": 3176052,
      "componentType": 5125,
      "count": 167736,
      "type": "SCALAR"
    }
  ],
  "asset": {
    "extras": {
      "author": "matousekfoto (https://sketchfab.com/matousekfoto)",
      "license": "CC-BY-4.0 (http://creativecommons.org/licenses/by/4.0/)",
      "source": "https://sketchfab.com/3d-models/heap-of-construction-old-debris-bricks-f76f6ec4e06f4e5d9e1f7273a5bff619",
      "title": "Heap of construction old debris bricks"
    },
    "generator": "Sketchfab-11.73.0",
    "version": "2.0"
  },
  "bufferViews": [
    {
      "buffer": 0,
      "byteLength": 3846996,
      "name": "floatBufferViews",
      "target": 34963
    },
    {
      "buffer": 0,
      "byteLength": 1965184,
      "byteOffset": 3846996,
      "byteStride": 8,
      "name": "floatBufferViews",
      "target": 34962
    },
    {
      "buffer": 0,
      "byteLength": 5895552,
      "byteOffset": 5812180,
      "byteStride": 12,
      "name": "floatBufferViews",
      "target": 34962
    }
  ],
  "buffers": [
    {
      "byteLength": 11707732,
      "uri": "scene.bin"
    }
  ],
  "extensionsUsed": [
    "KHR_materials_unlit"
  ],
  "images": [
    {
      "uri": "textures/brick-heap-x_u1_v1_baseColor.jpeg"
    }
  ],
  "materials": [
    {
      "doubleSided": true,
      "extensions": {
        "KHR_materials_unlit": {}
      },
      "name": "brick-heap-x_u1_v1",
      "pbrMetallicRoughness": {
        "baseColorTexture": {
          "index": 0
        },
        "metallicFactor": 0.0
      }
    }
  ],
  "meshes": [
    {
      "name": "brick-heap-x_brick-heap-x_u1_v1_0",
      "primitives": [
        {
          "attributes": {
            "NORMAL": 1,
            "POSITION": 0,
            "TEXCOORD_0": 2
          },
          "indices": 3,
          "material": 0,
          "mode": 4
        }
      ]
    },
    {
      "name": "brick-heap-x_brick-heap-x_u1_v1_0",
      "primitives": [
        {
          "attributes": {
            "NORMAL": 5,
            "POSITION": 4,
            "TEXCOORD_0": 6
          },
          "indices": 7,
          "material": 0,
          "mode": 4
        }
      ]
    },
    {
      "name": "brick-heap-x_brick-heap-x_u1_v1_0",
      "primitives": [
        {
          "attributes": {
            "NORMAL": 9,
            "POSITION": 8,
            "TEXCOORD_0": 10
          },
          "indices": 11,
          "material": 0,
          "mode": 4
        }
      ]
    },
    {
      "name": "brick-heap-x_brick-heap-x_u1_v1_0",
      "primitives": [
        {
          "attributes": {
            "NORMAL": 13,
            "POSITION": 12,
            "TEXCOORD_0": 14
          },
          "indices": 15,
          "material": 0,
          "mode": 4
        }
      ]
    }
  ],
  "nodes": [
    {
      "children": [
        1
      ],
      "matrix": [
        0.0833333358168602,
        0.0,
        0.0,
        0.0,
        0.0,
        -0.0033989568322585853,
        -0.08326399077765112,
        0.0,
        0.0,
        0.08326399077765112,
        -0.0033989568322585853,
        0.0,
        -4.415627330445204e-08,
        0.05611852928996078,
        0.37258946895599365,
        1.0
      ],
      "name": "Sketchfab_model"
    },
    {
      "children": [
        2
      ],
      "matrix": [
        0.009999999776482582,
        0.0,
        0.0,
        0.0,
        0.0,
        0.0,
        0.009999999776482582,
        0.0,
        0.0,
        -0.009999999776482582,
        0.0,
        0.0,
        0.0,
        0.0,
        0.0,
        1.0
      ],
      "name": "brick-heap-x.fbx"
    },
    {
      "children": [
        3
      ],
      "name": "RootNode"
    },
    {
      "children": [
        4,
        5,
        6,
        7
      ],
      "matrix": [
        7.549789959870878e-06,
        1.1102230246251565e-14,
        99.99999999999972,
        0.0,
        99.99999999999962,
        -4.371139006309477e-06,
        -7.549789954319763e-06,
        0.0,
        4.371139006309477e-06,
        99.99999999999991,
        -3.552713678800501e-13,
        0.0,
        0.0,
        0.0,
        0.0,
        1.0
      ],
      "name": "brick-heap-x"
    },
    {
      "mesh": 0,
      "name": "brick-heap-x_brick-heap-x_u1_v1_0"
    },
    {
      "mesh": 1,
      "name": "brick-heap-x_brick-heap-x_u1_v1_0"
    },
    {
      "mesh": 2,
      "name": "brick-heap-x_brick-heap-x_u1_v1_0"
    },
    {
      "mesh": 3,
      "name": "brick-heap-x_brick-heap-x_u1_v1_0"
    }
  ],
  "samplers": [
    {
      "magFilter": 9729,
      "minFilter": 9987,
      "wrapS": 10497,
      "wrapT": 10497
    }
  ],
  "scene": 0,
  "scenes": [
    {
      "name": "Sketchfab_Scene",
      "nodes": [
        0
      ]
    }
  ],
  "textures": [
    {
      "sampler": 0,
      "source": 0
    }
  ]
}
